<?xml version="1.0" standalone="no"?>
<!DOCTYPE svg PUBLIC "-//W3C//DTD SVG 20010904//EN"
 "http://www.w3.org/TR/2001/REC-SVG-20010904/DTD/svg10.dtd">
<svg version="1.0" xmlns="http://www.w3.org/2000/svg"
 width="512.000000pt" height="512.000000pt" viewBox="0 0 512.000000 512.000000"
 preserveAspectRatio="xMidYMid meet">

<g transform="translate(0.000000,512.000000) scale(0.100000,-0.100000)"
fill="#000000" stroke="none">
<path d="M2460 4668 c-25 -14 -58 -44 -75 -67 l-30 -43 -5 -1274 -5 -1274
-140 141 c-77 77 -158 150 -180 161 -79 41 -191 22 -252 -44 -52 -56 -69 -171
-35 -235 26 -48 667 -699 718 -729 62 -36 146 -36 208 0 58 34 695 685 719
734 28 58 19 150 -19 204 -61 88 -178 118 -269 70 -22 -11 -103 -84 -180 -161
l-140 -141 -5 1273 -5 1274 -27 39 c-44 62 -90 88 -167 92 -55 3 -74 -1 -111
-20z"/>
<path d="M560 1904 c-46 -20 -87 -60 -111 -107 -19 -36 -20 -57 -17 -455 l3
-417 26 -67 c74 -190 207 -323 397 -397 l67 -26 1625 0 1625 0 70 22 c189 60
337 204 414 401 l26 67 3 417 c3 398 2 419 -17 455 -83 163 -298 163 -382 1
-18 -35 -19 -62 -19 -388 0 -236 -4 -366 -12 -398 -16 -64 -86 -134 -150 -150
-67 -17 -3029 -17 -3096 0 -64 16 -134 86 -150 150 -8 32 -12 162 -12 398 0
326 -1 353 -19 388 -53 102 -172 149 -271 106z"/>
</g>
</svg>
